<?xml version="1.0" encoding="utf-8"?>
<!-- Generator: Adobe Illustrator 27.3.1, SVG Export Plug-In . SVG Version: 6.00 Build 0)  -->
<svg version="1.1" id="Layer_1" xmlns="http://www.w3.org/2000/svg" xmlns:xlink="http://www.w3.org/1999/xlink" x="0px" y="0px"
	 viewBox="0 0 283.47 75.96" style="enable-background:new 0 0 283.47 75.96;" xml:space="preserve">
<style type="text/css">
	.st0{fill:#1E1E1E;}
	.st1{fill:#8DC63F;}
</style>
<g>
	<path class="st0" d="M70.45,75.96H55.87v-43.2c0-8.92,7.26-16.17,16.17-16.17c7.15,0,13.53,4.79,15.53,11.66l8.77,31.69
		c0.13,0.46,0.64,0.84,1.21,0.84c0.71,0,1.29-0.58,1.29-1.29V17.42h14.58v42.06c0,8.75-7.12,15.87-15.87,15.87
		c-7.02,0-13.28-4.7-15.24-11.44l-8.77-31.69c-0.17-0.58-0.8-1.05-1.5-1.05c-0.88,0-1.59,0.71-1.59,1.59V75.96z"/>
	<path class="st0" d="M32.67,75.96H0V61.38h32.67c2.02,0,3.67-1.65,3.67-3.67c0-2.2-1.65-3.85-3.67-3.85H18.25
		C8.19,53.86,0,45.67,0,35.61s8.19-18.25,18.25-18.25h31.9v14.58h-31.9c-2.02,0-3.67,1.65-3.67,3.67s1.65,3.67,3.67,3.67h14.42
		c10.06,0,18.25,8.19,18.25,18.25C50.92,67.77,42.73,75.96,32.67,75.96z"/>
	<path class="st0" d="M222.29,75.96H197.3c-13.46,0-24.41-10.95-24.41-24.41v-9.78c0-13.46,10.95-24.41,24.41-24.41h24.99v14.58
		H197.3c-5.42,0-9.83,4.41-9.83,9.83v9.78c0,5.42,4.41,9.83,9.83,9.83h24.99V75.96z"/>
	<path class="st0" d="M259.14,75.96h-10.25c-13.41,0-24.33-10.91-24.33-24.33v-9.96c0-13.41,10.91-24.33,24.33-24.33h10.25
		c13.41,0,24.33,10.91,24.33,24.33v9.96C283.46,65.05,272.55,75.96,259.14,75.96z M248.89,31.94c-5.37,0-9.74,4.37-9.74,9.74v9.96
		c0,5.37,4.37,9.74,9.74,9.74h10.25c5.37,0,9.74-4.37,9.74-9.74v-9.96c0-5.37-4.37-9.74-9.74-9.74H248.89z"/>
	<path class="st1" d="M157.41,21.32l2.29-6.34c0.93-2.57,2.19-5.03,3.98-7.09C167.98,2.94,174.27,0,181,0h11l-3.52,7.73
		c-1.8,3.94-4.5,7.48-8.12,9.85c-3.68,2.4-8.02,3.73-12.54,3.73L157.41,21.32L157.41,21.32z"/>
	<path class="st0" d="M133.43,48.56h33.71v-14.7h-33.71V21.04h17.96l2.97-8.21c0.86-2.37,1.92-4.49,3.15-6.37h-28.66
		c-5.52,0-10,4.49-10,10v17.4v14.7v17.4c0,5.51,4.49,10,10,10h40.74V61.38h-36.16L133.43,48.56L133.43,48.56z"/>
</g>
</svg>
